<?xml version="1.0" standalone="no"?>
<!DOCTYPE svg PUBLIC "-//W3C//DTD SVG 20010904//EN"
 "http://www.w3.org/TR/2001/REC-SVG-20010904/DTD/svg10.dtd">
<svg version="1.0" xmlns="http://www.w3.org/2000/svg"
 width="498.000000pt" height="512.000000pt" viewBox="0 0 498.000000 512.000000"
 preserveAspectRatio="xMidYMid meet">

<g transform="translate(0.000000,512.000000) scale(0.100000,-0.100000)"
fill="#000000" stroke="none">
<path d="M2376 5020 c-72 -6 -112 -13 -117 -22 -5 -7 -9 -37 -9 -65 0 -29 -4
-53 -10 -53 -5 0 -10 17 -10 38 0 20 -3 48 -7 60 -6 23 -9 24 -62 17 -31 -4
-62 -12 -68 -17 -7 -6 -13 -30 -13 -54 0 -24 -4 -44 -10 -44 -5 0 -10 12 -10
28 0 15 -3 36 -6 48 l-5 20 -87 -18 c-94 -21 -109 -28 -115 -61 l-4 -22 -8 23
c-9 26 -6 26 -75 3 -47 -15 -51 -19 -30 -24 21 -5 1447 -11 1550 -7 l35 2 -34
14 c-24 11 -37 12 -44 5 -15 -15 -25 -14 -29 5 -7 35 -316 102 -548 119 -47 3
-105 7 -130 9 -25 2 -94 0 -154 -4z"/>
<path d="M3183 4833 c9 -2 17 -9 17 -14 0 -5 11 -7 25 -3 20 5 24 3 19 -10 -3
-9 -2 -16 4 -16 5 0 12 9 15 20 3 10 2 19 -2 18 -3 0 -8 0 -11 1 -3 1 -23 4
-45 5 -22 2 -32 1 -22 -1z"/>
<path d="M3165 4800 c3 -5 15 -10 26 -10 11 0 17 5 14 10 -3 6 -15 10 -26 10
-11 0 -17 -4 -14 -10z"/>
<path d="M3266 4794 c-5 -13 -2 -15 16 -10 13 3 37 6 53 7 29 1 30 1 5 9 -41
13 -67 11 -74 -6z"/>
<path d="M3045 4772 c-93 -1 -177 -5 -185 -8 -10 -4 -3 -12 25 -25 22 -11 43
-26 48 -34 4 -8 16 -15 26 -15 37 0 87 -35 109 -76 6 -12 28 -29 48 -39 21
-10 50 -31 64 -47 l27 -29 7 101 c3 55 3 112 0 125 -4 15 -2 25 5 25 7 0 11
-32 12 -92 2 -145 5 -152 64 -159 28 -4 69 -9 91 -12 l42 -6 4 42 c3 23 6 82
7 132 1 49 4 91 6 94 3 2 27 5 55 6 63 2 78 15 19 16 -127 3 -323 4 -474 1z"/>
<path d="M1617 4762 c-81 -1 -146 -6 -143 -11 3 -4 -19 -32 -49 -60 -31 -30
-56 -63 -56 -75 -4 -68 -2 -153 3 -167 5 -14 14 -15 55 -7 105 20 231 37 281
37 68 1 109 35 127 107 l12 49 7 -32 c8 -37 19 -41 38 -15 17 23 85 75 125 96
19 9 33 25 35 38 2 18 10 23 33 24 17 0 41 2 55 3 22 3 21 4 -10 11 -33 8
-191 9 -513 2z m230 -94 c-2 -18 -4 -6 -4 27 0 33 2 48 4 33 2 -15 2 -42 0
-60z"/>
<path d="M3576 4728 c-8 -40 -6 -236 3 -268 5 -20 14 -26 41 -28 19 -2 40 -8
46 -13 18 -15 24 14 24 119 0 151 -4 163 -60 194 l-48 27 -6 -31z"/>
<path d="M1210 4633 c-63 -42 -147 -102 -187 -135 -65 -53 -72 -63 -79 -103
-7 -53 -1 -231 9 -241 4 -4 17 6 29 22 40 51 112 113 163 140 28 15 63 38 78
51 16 12 35 23 42 23 29 0 39 43 37 154 -1 77 2 118 12 138 8 15 14 28 13 28
-1 0 -54 -35 -117 -77z"/>
<path d="M2392 4699 c-58 -10 -103 -28 -69 -29 9 0 17 -8 17 -17 0 -10 3 -35
6 -55 8 -44 -5 -49 -37 -17 -15 15 -20 30 -17 55 5 41 -1 42 -78 9 -99 -43
-150 -75 -271 -175 -42 -33 -55 -59 -30 -57 6 1 51 -5 100 -12 86 -14 88 -14
112 9 14 13 31 20 39 17 23 -9 20 -24 -6 -33 -19 -6 -20 -7 -4 -16 9 -5 49
-18 89 -29 82 -23 220 -73 258 -94 14 -8 29 -12 32 -9 9 9 158 65 237 88 71
22 75 25 78 55 2 23 8 31 23 31 10 0 24 9 31 20 15 24 63 27 72 4 11 -28 7
-33 -29 -40 -47 -9 -45 -26 3 -18 20 3 75 11 122 17 47 7 85 17 85 22 0 12
-153 135 -192 155 -15 8 -35 19 -43 25 -35 27 -142 65 -235 84 -118 25 -125
25 -125 6 0 -8 -7 -15 -15 -15 -8 0 -15 7 -15 15 0 17 -50 19 -138 4z m35
-141 c-3 -7 -5 -2 -5 12 0 14 2 19 5 13 2 -7 2 -19 0 -25z m103 2 c0 -23 -5
-30 -19 -30 -31 0 -37 21 -11 42 29 24 30 23 30 -12z m354 24 c12 -5 13 -10 5
-25 -14 -28 -39 -24 -39 6 0 26 7 29 34 19z m-674 -84 c0 -16 -7 -20 -30 -20
-23 0 -30 4 -30 20 0 16 7 20 30 20 23 0 30 -4 30 -20z m38 -53 c2 -10 -3 -17
-12 -17 -10 0 -16 9 -16 21 0 24 23 21 28 -4z m235 -28 c8 -11 21 -20 28 -19
31 5 40 -1 37 -22 -4 -30 -43 -36 -57 -10 -9 18 -16 19 -52 11 -49 -11 -70 0
-48 27 29 36 72 42 92 13z"/>
<path d="M3722 4533 l3 -138 32 -15 c18 -8 41 -25 53 -37 11 -13 25 -23 30
-23 13 0 23 141 15 215 l-7 64 -56 36 c-31 19 -60 35 -64 35 -5 0 -7 -62 -6
-137z"/>
<path d="M3870 4445 l0 -125 68 -64 c98 -94 149 -152 171 -193 6 -13 17 -22
24 -20 7 1 11 -4 9 -10 -1 -7 2 -13 7 -13 5 0 13 -14 16 -32 4 -17 29 -78 56
-134 l50 -103 9 -160 10 -161 37 -35 c21 -19 41 -35 45 -35 3 0 21 -21 40 -47
48 -67 54 -78 39 -68 -14 8 -4 -14 22 -49 13 -18 14 -17 20 13 6 29 10 31 47
31 l40 0 0 -45 c0 -51 7 -60 156 -212 84 -86 123 -110 137 -85 13 20 -60 362
-83 397 -4 6 -13 35 -20 65 -23 97 -152 399 -171 400 -12 0 -19 -78 -19 -232
l0 -158 -40 0 -40 0 0 263 c0 144 -5 278 -10 297 -5 19 -30 62 -54 95 -70 94
-66 91 -90 62 -47 -56 -101 -55 -131 2 -20 40 -20 45 15 84 17 19 30 43 30 53
0 32 -345 344 -381 344 -5 0 -9 -56 -9 -125z"/>
<path d="M3258 4423 c7 -3 16 -2 19 1 4 3 -2 6 -13 5 -11 0 -14 -3 -6 -6z"/>
<path d="M3338 4423 c6 -2 18 -2 25 0 6 3 1 5 -13 5 -14 0 -19 -2 -12 -5z"/>
<path d="M834 4330 c-59 -59 -69 -75 -71 -107 -1 -42 -32 -72 -73 -73 -30 0
-57 -32 -161 -185 -86 -126 -115 -175 -176 -298 -39 -79 -100 -226 -117 -284
l-7 -23 203 0 c214 0 248 4 248 26 0 8 4 14 9 14 4 0 13 55 20 123 6 67 14
141 16 164 4 41 4 42 -15 30 -14 -8 -20 -21 -18 -42 2 -45 -9 -69 -41 -88 -41
-24 -63 -21 -94 11 -38 39 -35 73 8 111 42 36 39 36 72 14 26 -17 26 -17 62
24 20 22 47 63 60 89 13 27 32 67 43 89 12 22 30 58 40 80 11 22 32 52 46 67
23 25 26 39 34 140 8 110 4 188 -11 188 -4 0 -39 -31 -77 -70z"/>
<path d="M1670 4353 c-302 -16 -533 -139 -682 -363 -68 -103 -119 -246 -135
-380 -6 -54 -6 -55 14 -37 11 9 27 17 36 17 29 0 19 -26 -20 -51 -22 -14 -39
-34 -41 -47 -5 -30 9 -28 60 11 90 68 187 127 315 191 72 36 137 66 145 66 27
1 58 37 88 105 19 41 29 78 26 91 -4 16 1 26 18 37 21 14 38 40 114 177 14 25
49 78 79 118 29 39 50 71 46 70 -5 -1 -33 -3 -63 -5z m-270 -454 c0 -17 -43
-48 -67 -49 -31 0 -29 14 5 39 29 22 62 27 62 10z m-160 -113 c0 -18 -43 -46
-70 -46 -26 0 -25 12 3 37 36 33 67 37 67 9z m-160 -101 c0 -18 -58 -56 -79
-53 -24 5 -18 21 18 45 39 27 61 29 61 8z"/>
<path d="M3097 4344 c-112 -14 -321 -65 -367 -89 -15 -8 -48 -19 -73 -26 -26
-6 -47 -15 -47 -19 0 -5 25 -21 56 -36 46 -22 60 -25 75 -16 30 19 42 15 35
-13 -6 -24 7 -35 19 -15 3 6 22 10 41 10 25 0 50 11 87 38 113 83 197 127 197
104 0 -16 -26 -40 -110 -100 -95 -67 -147 -117 -132 -126 5 -3 15 1 22 9 7 8
19 15 27 15 12 0 14 -7 10 -30 -7 -34 -3 -37 19 -15 9 8 30 15 48 15 22 0 48
11 77 34 106 81 189 124 189 98 0 -12 -46 -53 -116 -104 -58 -42 -134 -112
-134 -123 0 -15 38 -2 43 15 3 11 12 20 21 20 22 0 32 -30 15 -42 -10 -7 -7
-8 11 -3 14 4 36 6 50 6 13 -1 49 16 78 36 103 71 137 93 155 99 22 8 19 15
-27 85 -77 114 -139 190 -154 188 -4 -1 -56 -7 -115 -15z m53 -29 c0 -8 -4
-15 -9 -15 -5 0 -11 7 -15 15 -3 9 0 15 9 15 8 0 15 -7 15 -15z"/>
<path d="M3316 4349 c4 -8 26 -36 47 -64 52 -66 97 -137 142 -224 33 -64 39
-70 61 -65 27 7 28 4 13 -29 -9 -19 -7 -34 11 -76 23 -52 38 -62 59 -37 14 16
86 56 101 56 24 0 4 -29 -52 -74 l-61 -50 34 -14 c109 -47 93 -47 160 -6 33
21 62 41 65 46 3 4 12 8 20 8 28 0 13 -29 -36 -67 -27 -21 -49 -41 -50 -46 0
-4 10 -12 23 -17 12 -6 36 -19 52 -29 42 -27 51 -26 104 13 93 68 132 49 41
-21 -27 -21 -49 -40 -49 -43 0 -3 27 -22 60 -43 l61 -37 39 31 c43 34 44 36
28 111 -65 319 -234 523 -517 627 -82 30 -162 45 -291 57 -61 5 -72 4 -65 -7z"/>
<path d="M1768 4283 c-61 -76 -128 -173 -128 -186 0 -4 13 0 30 10 22 12 33
14 41 6 8 -8 1 -18 -25 -38 -30 -23 -39 -25 -51 -15 -13 11 -24 -5 -74 -111
-33 -68 -58 -125 -56 -127 2 -2 22 2 45 8 30 8 40 15 36 26 -3 8 -9 21 -12 29
-7 17 13 20 35 6 13 -8 13 -12 0 -27 -13 -16 -12 -17 6 -9 11 4 54 15 95 24
73 16 75 17 75 46 0 24 -5 31 -25 35 -14 3 -26 13 -28 23 -6 28 25 20 65 -18
41 -39 58 -43 128 -33 108 16 117 25 58 55 -27 14 -39 27 -41 46 -3 21 -9 27
-27 27 -19 0 -35 16 -35 36 0 15 47 -1 68 -24 15 -15 49 -40 76 -56 l48 -28
27 21 c14 12 36 26 49 31 32 14 28 26 -18 51 -32 18 -40 28 -40 51 0 23 -4 28
-25 28 -16 0 -25 6 -25 15 0 23 23 18 56 -11 16 -14 45 -34 64 -45 19 -10 43
-25 52 -31 13 -10 20 -9 35 5 10 9 37 24 58 33 36 15 38 18 21 28 -62 37 -81
54 -84 74 -2 12 1 22 7 22 11 0 63 -27 106 -56 27 -17 66 -16 73 4 2 6 -3 12
-10 12 -8 0 -43 12 -79 26 -35 14 -83 25 -106 25 -26 1 -43 6 -47 14 -9 24
-204 65 -307 65 l-57 0 -54 -67z m252 22 c0 -19 -57 -48 -78 -40 -13 5 -12 9
9 30 27 27 69 33 69 10z m-150 -98 c0 -22 -67 -54 -81 -40 -9 9 -7 17 12 32
27 23 69 28 69 8z"/>
<path d="M2485 4150 c-16 -18 -16 -20 -1 -26 9 -3 30 -4 47 0 43 8 109 -30 81
-48 -5 -3 -23 4 -41 15 -44 27 -52 16 -16 -21 23 -24 25 -30 11 -30 -9 0 -31
7 -47 16 -39 20 -52 9 -20 -17 17 -14 21 -23 14 -30 -8 -8 -20 -4 -42 12 -35
26 -38 34 -15 47 14 8 14 11 -7 26 -13 9 -29 16 -36 16 -13 0 -78 -34 -101
-53 -21 -17 32 -40 75 -32 28 5 39 2 59 -19 24 -23 29 -24 172 -25 136 -1 249
-11 272 -26 6 -3 10 -2 10 4 0 12 -153 103 -262 156 -43 21 -78 41 -78 46 0
17 -57 9 -75 -11z m232 -107 c10 -10 14 -15 8 -11 -6 4 -28 -1 -48 -12 -58
-31 -79 -26 -39 10 37 35 52 37 79 13z"/>
<path d="M2825 4100 c-3 -5 -1 -10 4 -10 6 0 11 5 11 10 0 6 -2 10 -4 10 -3 0
-8 -4 -11 -10z"/>
<path d="M3390 4044 c-14 -14 -57 -48 -97 -76 -40 -28 -70 -54 -68 -58 3 -4
24 -10 47 -14 24 -3 58 -9 76 -12 25 -5 39 -1 65 18 17 14 40 27 50 31 9 3 17
14 17 23 0 18 -50 114 -59 113 -3 0 -17 -12 -31 -25z"/>
<path d="M2203 3997 c-23 -12 -43 -25 -43 -29 0 -6 57 -1 120 11 l35 7 -34 17
c-19 9 -35 17 -35 16 -1 0 -20 -10 -43 -22z"/>
<path d="M2980 4000 c0 -5 5 -10 10 -10 6 0 10 5 10 10 0 6 -4 10 -10 10 -5 0
-10 -4 -10 -10z"/>
<path d="M2385 3990 c3 -5 13 -10 21 -10 8 0 14 5 14 10 0 6 -9 10 -21 10 -11
0 -17 -4 -14 -10z"/>
<path d="M2380 3908 c-14 -5 -37 -7 -52 -4 -28 5 -39 -8 -15 -17 9 -4 9 -8 -2
-15 -11 -8 -22 -5 -39 9 -13 10 -29 16 -34 13 -12 -7 10 -34 37 -44 19 -8 20
-8 1 -16 -14 -5 -38 2 -81 25 -54 29 -66 32 -111 26 -48 -7 -94 -28 -94 -43 0
-15 58 -32 87 -26 23 5 39 0 62 -17 17 -12 31 -26 31 -31 0 -13 -35 -9 -56 7
-25 19 -34 19 -34 0 0 -8 11 -17 25 -21 28 -7 33 -22 10 -30 -15 -6 -78 24
-131 63 -17 13 -35 23 -40 23 -5 -1 -29 -19 -54 -40 -53 -47 -46 -65 26 -63
36 1 52 -3 72 -22 34 -32 21 -43 -24 -21 -20 9 -39 15 -41 12 -9 -8 8 -27 33
-36 19 -8 40 -2 99 25 41 19 78 35 82 35 5 0 26 10 48 21 54 29 237 59 360 59
115 0 259 -21 348 -51 309 -103 544 -330 638 -614 28 -87 33 -114 33 -207 1
-105 1 -107 -29 -137 -52 -55 -131 -62 -203 -19 -43 27 -58 59 -66 146 -7 69
-33 162 -56 199 -8 14 -9 11 -5 -17 6 -33 3 -37 -45 -69 -28 -19 -63 -46 -78
-61 -15 -14 -43 -36 -62 -50 -19 -13 -37 -27 -40 -30 -11 -13 -88 -70 -95 -70
-3 0 -13 -7 -22 -15 -8 -9 -28 -19 -43 -22 -20 -3 -30 -13 -35 -31 -3 -14 -22
-41 -41 -59 -31 -29 -33 -33 -14 -33 11 0 23 -7 26 -15 7 -18 24 -20 24 -2 0
7 11 24 25 39 34 37 79 41 426 36 315 -4 344 -9 355 -55 7 -28 -19 -191 -41
-259 -25 -76 -81 -180 -130 -245 -25 -33 -45 -60 -45 -62 0 -1 16 -11 35 -21
34 -19 48 -46 23 -46 -7 0 -28 9 -46 20 -27 17 -37 18 -48 9 -12 -10 -10 -15
15 -30 63 -38 51 -63 -15 -31 -47 23 -74 21 -53 -4 6 -8 17 -14 24 -14 21 0
40 -29 27 -42 -8 -8 -22 -4 -51 16 -35 25 -61 28 -61 8 0 -4 16 -18 35 -31 25
-17 33 -27 25 -35 -7 -7 -23 -3 -54 13 -33 19 -47 22 -62 13 -18 -10 -18 -11
6 -20 14 -5 33 -19 43 -30 30 -34 1 -36 -47 -4 l-43 30 -69 -34 c-87 -43 -202
-80 -277 -89 -45 -6 -67 -15 -98 -41 -23 -19 -45 -34 -49 -34 -19 0 -21 22 -4
41 16 18 16 19 -7 19 -13 0 -31 -4 -39 -10 -8 -5 -19 -5 -25 -1 -5 5 -45 11
-87 15 -43 4 -99 13 -125 21 -26 8 -69 15 -94 15 -29 0 -51 6 -59 15 -7 8 -56
35 -109 61 -53 25 -100 51 -106 57 -13 16 -143 117 -150 117 -3 0 -1 -9 5 -19
5 -11 10 -26 10 -35 0 -8 -45 -48 -100 -88 -54 -40 -99 -75 -98 -78 0 -3 27
-29 59 -59 l59 -54 54 44 c30 24 77 60 103 79 26 19 53 41 59 49 13 16 44 8
44 -12 0 -7 -24 -31 -52 -52 -120 -90 -168 -131 -168 -142 0 -7 3 -13 8 -13 4
0 31 -21 60 -46 57 -50 58 -50 107 2 5 6 52 41 103 79 50 38 92 75 92 82 0 24
18 13 23 -14 6 -31 -1 -38 -135 -142 -53 -41 -94 -79 -92 -85 11 -28 129 -71
162 -59 46 17 222 163 222 184 0 17 32 38 58 39 13 0 22 -6 22 -15 0 -21 -27
-30 -44 -16 -19 16 -27 -6 -13 -36 11 -25 9 -28 -106 -115 -37 -28 -66 -52
-65 -53 2 -1 57 -5 123 -9 l121 -6 42 32 c23 18 42 40 42 49 0 18 40 49 65 49
17 0 21 -35 4 -46 -6 -3 -16 -1 -22 5 -21 21 -29 11 -22 -28 5 -32 3 -41 -12
-51 -14 -9 23 -10 160 -6 253 9 334 28 409 98 7 7 46 39 86 72 77 62 97 84 67
73 -19 -8 -48 10 -39 24 8 13 62 11 66 -2 2 -7 30 13 63 44 50 47 57 57 46 71
-18 21 -4 39 26 31 27 -6 56 17 109 90 16 22 37 46 47 53 38 29 147 187 147
213 0 15 2 34 5 42 4 8 -8 23 -29 38 -20 13 -36 27 -36 32 0 11 38 9 45 -3 10
-16 35 -12 35 5 0 9 -7 18 -15 22 -14 5 -14 8 -2 22 8 9 17 25 21 36 14 38 7
451 -9 606 -15 143 -19 157 -47 199 -162 234 -604 651 -711 671 -108 20 -572
41 -607 27z m34 -49 c-27 -17 -64 -44 -82 -60 -18 -16 -38 -29 -45 -29 -21 1
145 120 167 120 5 0 -12 -14 -40 -31z m-220 -28 c36 -37 18 -50 -29 -21 -37
23 -43 35 -22 43 20 9 22 8 51 -22z m-161 -106 c31 -27 33 -35 12 -35 -23 0
-65 30 -65 46 0 21 22 16 53 -11z m1197 -724 c0 -5 -42 -41 -92 -79 -51 -39
-115 -88 -143 -109 -129 -100 -148 -113 -154 -108 -6 7 29 41 88 85 18 14 57
44 86 67 95 76 200 153 207 153 5 0 8 -4 8 -9z m490 -312 c-14 -11 -42 -33
-62 -49 -62 -51 -53 -33 13 25 35 30 66 52 69 49 3 -3 -6 -14 -20 -25z m-10
-449 c0 -19 -20 -19 -54 1 -36 21 -42 30 -30 42 8 8 84 -30 84 -43z m-76 -21
c18 -14 24 -25 18 -31 -12 -12 -94 30 -86 44 9 14 41 9 68 -13z m-57 -40 c26
-16 32 -24 23 -33 -8 -8 -21 -5 -48 10 -20 12 -38 27 -40 33 -6 18 28 13 65
-10z m-62 -41 c35 -23 46 -48 21 -48 -7 0 -19 7 -26 15 -7 8 -18 15 -26 15
-16 0 -27 17 -19 30 8 14 10 13 50 -12z m-23 -66 c17 -20 2 -26 -31 -12 -36
15 -55 35 -46 50 7 11 57 -13 77 -38z m-132 -202 c0 -5 -4 -10 -10 -10 -5 0
-10 5 -10 10 0 6 5 10 10 10 6 0 10 -4 10 -10z m-190 -77 c0 -16 -14 -17 -43
-2 -40 21 -59 42 -45 50 15 10 88 -30 88 -48z m-50 -44 c0 -21 -25 -18 -64 7
-38 24 -42 30 -29 39 13 9 24 7 54 -13 22 -14 39 -29 39 -33z m-65 -50 c0 -19
-31 -12 -66 13 -21 16 -26 25 -18 34 9 11 18 9 47 -10 21 -13 37 -29 37 -37z
m142 35 c-3 -3 -12 -4 -19 -1 -8 3 -5 6 6 6 11 1 17 -2 13 -5z m-732 -14 c3
-5 1 -10 -4 -10 -6 0 -11 5 -11 10 0 6 2 10 4 10 3 0 8 -4 11 -10z m288 -17
c11 -10 -44 -63 -65 -63 -24 0 -23 19 4 47 21 23 48 30 61 16z m212 -12 c32
-19 46 -51 22 -51 -8 0 -20 7 -27 15 -7 8 -18 15 -25 15 -16 0 -37 25 -28 33
10 10 25 7 58 -12z m-52 -48 c20 -12 37 -27 37 -32 0 -18 -21 -23 -37 -9 -9 7
-32 20 -51 30 -35 16 -37 15 -67 -8 -35 -26 -50 -30 -61 -13 -3 6 6 22 22 34
37 30 104 29 157 -2z m-258 -43 c3 -5 -1 -10 -9 -10 -9 0 -16 5 -16 10 0 6 4
10 9 10 6 0 13 -4 16 -10z m380 0 c3 -5 -1 -10 -9 -10 -9 0 -16 5 -16 10 0 6
4 10 9 10 6 0 13 -4 16 -10z m69 -16 c22 -8 20 -21 -5 -35 -25 -13 -45 1 -36
25 7 17 16 19 41 10z"/>
<path d="M3473 3887 c-18 -12 -33 -25 -33 -28 0 -3 23 -12 50 -21 l51 -16 -7
21 c-11 37 -23 67 -26 66 -2 0 -18 -10 -35 -22z"/>
<path d="M1835 3841 c-11 -5 -42 -11 -68 -15 -52 -8 -56 -19 -15 -44 25 -15
28 -14 62 16 20 18 41 32 46 32 6 0 10 5 10 10 0 12 -7 12 -35 1z"/>
<path d="M3195 3828 c17 -12 40 -33 51 -45 12 -13 23 -23 26 -23 2 0 27 -20
54 -45 27 -25 85 -66 129 -90 44 -25 106 -61 137 -80 58 -35 85 -32 49 4 -13
13 -18 27 -14 37 5 15 1 16 -32 11 l-38 -6 28 29 c33 35 28 49 -9 25 -14 -10
-33 -15 -41 -11 -12 4 -10 10 11 31 14 14 29 25 34 25 11 0 13 12 4 34 -8 22
-24 20 -24 -3 0 -22 -38 -49 -80 -58 -38 -7 -40 11 -3 29 14 7 28 19 31 26 3
11 -1 11 -24 -1 -33 -16 -84 -30 -84 -22 0 3 16 21 36 40 21 21 30 35 21 35
-8 0 -20 -6 -26 -14 -13 -15 -60 -30 -69 -21 -3 3 5 16 18 30 23 24 23 25 3
25 -11 0 -26 -7 -33 -15 -7 -8 -23 -15 -36 -15 -15 0 -24 6 -24 15 0 8 6 15
14 15 16 0 31 18 22 27 -3 3 -17 -2 -30 -11 -32 -20 -36 -20 -36 3 0 13 -9 20
-27 23 -16 3 -37 8 -48 12 -13 5 -9 -1 10 -16z"/>
<path d="M1590 3775 c-14 -8 -34 -14 -46 -15 -11 0 -28 -6 -38 -13 -16 -12
-13 -15 33 -37 28 -13 58 -32 68 -42 23 -26 44 -22 76 12 16 17 32 30 37 30 4
0 10 6 13 14 7 17 -66 66 -96 66 -12 -1 -33 -7 -47 -15z"/>
<path d="M1451 3691 c-13 -35 -33 -112 -29 -116 2 -1 25 -15 51 -30 l48 -28
45 44 c24 24 44 46 44 49 0 4 -22 19 -48 33 -27 14 -60 37 -74 50 l-27 25 -10
-27z"/>
<path d="M2400 3709 c-200 -20 -420 -124 -564 -266 -52 -51 -139 -168 -166
-223 -42 -83 -70 -184 -77 -271 l-6 -87 34 -7 c50 -12 621 -8 652 4 48 18 49
98 2 119 -17 8 -101 12 -255 12 -265 0 -248 -9 -205 107 33 88 101 189 168
249 65 59 169 127 222 145 22 7 45 16 50 20 55 39 364 56 480 26 154 -40 278
-110 390 -221 122 -120 184 -250 201 -423 6 -54 11 -67 36 -88 39 -33 91 -33
123 0 20 20 25 34 25 78 0 125 -52 294 -125 407 -57 88 -179 210 -262 263
-213 136 -441 185 -723 156z"/>
<path d="M570 3690 c-23 -23 -24 -29 -10 -65 9 -23 15 -26 47 -23 33 3 39 7
47 37 8 30 7 36 -13 52 -30 24 -46 24 -71 -1z"/>
<path d="M1350 3688 c-13 -5 -33 -18 -43 -28 -10 -11 -28 -20 -42 -20 -24 0
-120 -44 -130 -59 -5 -9 56 -81 69 -81 4 0 28 -14 52 -32 24 -17 45 -29 47
-27 2 2 12 33 22 68 18 59 18 64 2 73 -19 10 -23 63 -6 73 6 4 13 -2 16 -14 7
-29 18 -26 33 8 16 40 11 51 -20 39z"/>
<path d="M3670 3693 c0 -4 5 -15 10 -23 7 -11 12 -12 21 -3 8 8 6 14 -10 22
-12 7 -21 8 -21 4z"/>
<path d="M1750 3645 c-42 -43 -43 -45 -20 -47 14 0 36 0 49 1 14 1 35 -8 52
-25 17 -16 34 -24 43 -21 25 10 19 22 -19 40 -19 9 -35 23 -35 32 0 20 39 20
46 0 9 -22 41 -37 64 -30 30 10 24 18 -24 38 -24 10 -52 27 -62 38 -26 29 -45
24 -94 -26z"/>
<path d="M3737 3643 c-4 -3 -7 -13 -7 -21 0 -8 -7 -20 -17 -27 -9 -7 -13 -17
-8 -24 5 -9 12 -7 26 8 22 24 28 25 49 11 13 -9 12 -13 -9 -30 -13 -11 -30
-20 -38 -20 -11 0 -12 -8 -7 -37 7 -39 20 -63 35 -63 7 0 78 -41 168 -97 20
-13 53 -32 74 -43 20 -11 37 -23 37 -26 0 -5 -58 25 -165 86 -92 52 -125 68
-125 58 0 -5 9 -56 21 -111 20 -102 27 -116 110 -242 21 -33 42 -67 46 -75 4
-8 18 -31 31 -50 13 -19 40 -66 59 -104 19 -38 38 -65 43 -60 34 38 150 460
132 479 -3 3 -16 5 -29 5 -30 0 -30 16 1 24 22 5 42 33 32 43 -2 3 -16 -3 -29
-12 -29 -19 -87 -29 -87 -15 0 6 6 10 13 10 8 0 24 11 37 25 13 14 34 25 47
25 34 0 28 14 -23 56 -36 30 -49 36 -62 27 -10 -6 -17 -18 -17 -28 0 -20 -58
-55 -92 -55 -33 0 -28 14 12 33 35 17 51 46 18 32 -54 -23 -96 -35 -102 -29
-3 4 0 9 7 12 8 2 25 17 40 33 18 21 35 29 58 29 18 0 35 4 38 8 6 10 -32 40
-82 66 -31 16 -36 16 -57 2 -14 -9 -22 -22 -19 -30 6 -16 -30 -38 -78 -50 -34
-8 -38 11 -5 23 13 5 29 16 36 25 12 14 11 16 -7 16 -11 0 -25 -7 -32 -15 -7
-8 -27 -15 -44 -15 l-31 1 39 32 c22 18 55 34 74 37 20 3 37 10 38 15 4 12
-97 65 -124 65 -10 0 -22 -3 -25 -7z m219 -155 c9 -14 -43 -58 -68 -58 -23 0
-23 6 5 40 23 30 51 38 63 18z m173 -102 c9 -11 6 -18 -18 -35 -28 -21 -61
-28 -61 -14 0 9 52 63 61 63 3 0 12 -6 18 -14z m-10 -374 c-13 -9 -43 -34 -66
-55 -23 -21 -48 -37 -54 -35 -7 2 21 32 62 66 41 33 76 56 78 51 2 -6 -7 -18
-20 -27z"/>
<path d="M3535 3508 c49 -51 104 -114 123 -140 20 -26 37 -46 39 -44 6 5 -29
140 -39 153 -5 6 -28 22 -51 34 -73 39 -82 44 -114 67 -56 40 -46 23 42 -70z"/>
<path d="M1630 3528 c-23 -22 -40 -42 -36 -45 3 -3 12 0 21 7 12 10 21 7 50
-19 19 -17 35 -34 34 -38 -1 -11 -29 -4 -61 15 -15 9 -30 13 -33 10 -11 -11 7
-37 28 -40 11 -2 22 -9 25 -15 6 -20 -35 -15 -78 9 -52 30 -62 16 -20 -27 38
-40 24 -47 -29 -14 -18 11 -36 18 -38 15 -11 -11 8 -37 33 -47 21 -8 25 -12
15 -22 -9 -9 -19 -8 -42 6 -37 21 -49 22 -49 2 0 -8 11 -17 25 -21 46 -12 27
-26 -25 -19 -54 7 -67 -5 -32 -31 15 -12 14 -13 -16 -14 -29 0 -32 -3 -27 -20
5 -16 2 -20 -15 -20 -27 0 -37 -27 -45 -126 l-7 -79 30 -13 c31 -13 135 -93
129 -99 -2 -1 -25 8 -52 20 -39 19 -53 22 -71 13 -13 -6 -25 -18 -25 -26 -1
-8 -5 5 -8 30 -5 32 -9 -1 -15 -113 -4 -87 -5 -161 -2 -164 3 -3 13 0 21 7 11
9 19 10 26 3 8 -8 1 -18 -21 -34 l-32 -24 5 -96 c3 -53 12 -112 21 -134 12
-28 13 -41 5 -51 -19 -23 9 -164 32 -164 21 0 105 75 111 99 9 31 67 59 79 39
12 -18 1 -28 -32 -28 -29 0 -39 -13 -19 -25 21 -13 8 -33 -50 -73 -33 -24 -60
-48 -60 -55 0 -7 18 -30 40 -51 22 -22 40 -43 40 -48 0 -20 34 -4 99 44 39 29
73 62 77 73 8 24 42 55 60 55 8 0 -6 37 -37 96 -27 53 -49 108 -49 121 0 22
-3 24 -30 18 -35 -8 -40 7 -9 29 20 14 21 17 8 103 -15 107 -9 137 37 180 43
40 93 44 154 13 53 -27 66 -52 74 -134 3 -38 9 -73 13 -77 5 -4 22 -9 38 -11
17 -1 32 -6 35 -9 3 -4 24 -16 48 -28 23 -12 42 -26 42 -31 0 -6 6 -10 13 -10
7 0 23 -9 35 -20 12 -11 24 -20 28 -20 15 0 134 -147 134 -166 0 -4 11 -22 24
-39 19 -25 22 -35 13 -44 -9 -9 -8 -11 6 -5 13 5 16 2 11 -9 -3 -10 3 -20 16
-27 12 -6 19 -14 17 -17 -3 -2 -23 7 -44 21 -20 14 -41 26 -44 26 -4 0 -68 41
-142 90 -75 50 -138 90 -142 90 -12 0 76 -107 117 -141 170 -140 293 -183 523
-184 171 0 222 10 340 65 150 70 254 169 326 311 21 43 39 83 39 89 0 6 -76
10 -217 10 -198 0 -221 2 -250 19 -17 11 -34 29 -38 41 l-7 22 -19 -21 c-18
-20 -30 -21 -179 -21 -151 0 -160 1 -180 22 -24 26 -26 56 -4 86 14 20 24 22
132 24 l117 1 -115 7 c-63 4 -116 8 -117 9 -8 4 -33 63 -33 76 0 9 11 27 25
40 l24 25 -26 26 c-23 23 -25 30 -19 76 5 33 4 48 -4 43 -5 -3 -10 -18 -10
-33 0 -38 -33 -88 -72 -109 -30 -16 -65 -18 -363 -18 -316 0 -332 1 -365 21
l-35 20 1 105 c1 111 22 193 79 310 46 95 60 114 158 221 16 16 27 31 25 32
-2 0 -12 6 -23 13 -11 7 -39 23 -61 36 l-41 24 -43 -39z m94 -27 c20 -20 24
-30 14 -33 -16 -6 -90 41 -82 53 10 17 41 9 68 -20z m-84 -180 c-5 -11 -21
-26 -33 -33 -82 -46 -180 -115 -241 -170 -16 -15 -32 -25 -35 -22 -10 10 67
71 186 151 62 41 116 79 119 84 11 18 15 9 4 -10z m-290 -534 c0 -5 -4 -5 -10
-2 -5 3 -10 14 -10 23 0 15 2 15 10 2 5 -8 10 -19 10 -23z m5 -23 c19 -9 37
-24 40 -33 3 -9 20 -21 37 -26 18 -6 37 -19 43 -30 11 -22 55 -29 67 -11 4 6
8 -7 8 -28 0 -36 -1 -38 -17 -24 -10 8 -25 18 -33 22 -8 3 -33 19 -56 34 -22
15 -62 40 -87 57 -36 23 -47 36 -46 55 0 14 3 19 6 13 2 -7 20 -20 38 -29z
m536 -111 c13 -15 12 -15 -8 -4 -24 12 -29 21 -14 21 5 0 15 -7 22 -17z m-491
-42 c0 -5 -15 -21 -32 -35 -33 -25 -54 -22 -43 6 10 25 75 50 75 29z m55 -40
c6 -10 -46 -51 -64 -51 -21 0 -11 25 17 42 31 20 39 21 47 9z m62 -38 c6 -16
-66 -58 -78 -46 -7 7 1 19 22 37 31 27 49 30 56 9z m49 -34 c7 -12 -43 -58
-63 -59 -22 0 -14 23 15 47 31 26 38 27 48 12z m-188 -106 c-4 -20 -27 -27
-47 -14 -19 12 -4 31 25 31 19 0 25 -5 22 -17z m219 -79 c-3 -3 -12 -4 -19 -1
-8 3 -5 6 6 6 11 1 17 -2 13 -5z"/>
<path d="M1767 3563 c-11 -10 13 -33 34 -33 11 0 19 -5 19 -11 0 -5 5 -7 10
-4 16 10 12 20 -19 38 -33 19 -35 20 -44 10z"/>
<path d="M1018 3512 c-61 -39 -71 -56 -37 -65 11 -3 23 -14 25 -24 5 -16 228
-166 250 -167 5 -1 16 28 26 64 15 59 16 66 2 75 -9 6 -43 27 -76 48 -51 33
-59 42 -56 65 2 22 -1 27 -19 27 -11 0 -25 3 -29 8 -12 12 -27 7 -86 -31z"/>
<path d="M1394 3503 c-3 -16 -10 -43 -14 -61 -9 -34 -4 -62 10 -62 9 0 90 91
90 102 0 7 -63 48 -73 48 -4 0 -9 -12 -13 -27z"/>
<path d="M4174 3515 c-6 -16 12 -45 27 -45 5 0 9 14 9 30 0 32 -26 43 -36 15z"/>
<path d="M2405 3485 c-232 -38 -416 -167 -514 -362 -17 -34 -31 -65 -31 -68 0
-3 81 -5 180 -5 164 0 218 8 156 24 -13 3 -34 17 -47 31 -13 13 -32 25 -41 25
-29 0 -21 17 20 41 20 13 51 36 67 51 17 15 33 28 37 28 4 0 13 6 20 13 7 7
29 24 48 37 19 13 37 27 40 30 3 3 27 21 53 40 27 19 70 52 97 73 38 28 59 37
92 38 l43 1 -40 9 c-52 10 -83 9 -180 -6z"/>
<path d="M895 3417 c-44 -32 -54 -49 -48 -82 7 -37 30 -75 45 -75 6 0 26 -11
44 -25 18 -14 35 -25 37 -25 3 0 29 -16 58 -36 43 -28 59 -34 84 -30 24 5 36
1 50 -14 10 -11 24 -20 32 -20 20 0 16 28 -7 40 -11 6 -20 17 -20 25 0 20 36
19 44 0 8 -21 26 -19 26 3 0 16 -29 49 -55 62 -5 3 -54 34 -108 69 -86 56 -97
67 -95 90 3 22 -1 26 -19 23 -13 -2 -23 2 -23 7 0 16 -11 13 -45 -12z"/>
<path d="M2770 3363 c0 -5 23 -21 51 -36 58 -33 63 -60 13 -65 -21 -2 -44 5
-69 22 -39 27 -69 34 -63 15 6 -18 86 -59 116 -59 35 0 72 26 72 50 0 11 -18
32 -44 50 -42 29 -76 39 -76 23z"/>
<path d="M1350 3329 c0 -5 5 -7 10 -4 6 3 10 8 10 11 0 2 -4 4 -10 4 -5 0 -10
-5 -10 -11z"/>
<path d="M748 3282 c-14 -15 -37 -43 -51 -63 l-26 -35 70 -47 71 -47 -6 32
c-3 18 -9 66 -12 106 -4 40 -10 75 -14 77 -4 2 -18 -8 -32 -23z"/>
<path d="M4270 3300 c0 -5 5 -10 11 -10 5 0 7 5 4 10 -3 6 -8 10 -11 10 -2 0
-4 -4 -4 -10z"/>
<path d="M2633 3261 c-17 -11 -36 -27 -41 -37 -5 -9 -29 -26 -53 -38 -56 -27
-64 -63 -23 -95 53 -42 135 -23 146 34 2 13 12 21 31 23 28 3 35 16 16 27 -7
5 -3 14 10 26 28 26 26 43 -4 63 -31 21 -43 20 -82 -3z m57 -36 c-7 -8 -21
-15 -31 -15 -11 0 -19 7 -19 15 0 10 10 15 31 15 27 0 30 -2 19 -15z m-60 -40
c23 -21 15 -84 -14 -94 -22 -9 -59 3 -88 27 -24 20 -6 42 34 42 21 0 31 6 35
20 6 24 11 25 33 5z"/>
<path d="M4277 3245 c-13 -9 -21 -35 -28 -86 -5 -40 -7 -74 -6 -76 2 -2 10 8
17 22 15 29 46 26 69 -6 7 -10 22 -19 32 -19 22 0 23 -8 9 -44 -13 -34 -26
-33 -33 2 -5 24 -11 28 -42 29 -25 1 -38 -4 -42 -15 -4 -10 -14 -25 -24 -35
-10 -9 -30 -56 -45 -103 -14 -48 -39 -117 -55 -155 -16 -37 -29 -72 -29 -77 0
-6 16 -19 35 -31 19 -11 35 -27 35 -36 0 -18 -12 -19 -28 -3 -24 24 -22 -1 8
-75 16 -41 30 -83 30 -92 0 -9 7 -29 15 -45 8 -16 22 -57 30 -92 8 -35 21 -67
31 -73 9 -5 35 -22 58 -37 22 -15 48 -28 56 -28 16 0 88 107 80 118 -5 9 -140
92 -148 92 -20 1 -66 52 -67 72 0 19 -5 22 -27 20 -23 -3 -28 1 -28 17 0 32
34 26 65 -11 24 -29 156 -118 175 -118 4 0 13 -7 20 -15 22 -26 37 -16 64 44
32 73 32 76 -1 90 -16 6 -48 24 -73 39 -40 25 -45 32 -42 60 3 31 -10 43 -23
22 -11 -17 -35 -11 -35 9 0 11 4 22 8 25 11 6 72 -31 72 -44 0 -5 28 -28 62
-50 71 -46 72 -45 83 43 5 47 3 62 -9 76 -15 16 -15 21 0 57 13 32 14 47 5 89
-6 27 -12 59 -14 70 -2 11 -9 19 -15 17 -16 -3 -92 36 -92 48 0 21 22 19 55
-6 25 -19 35 -22 35 -12 0 8 -9 23 -20 33 -11 10 -20 29 -20 43 0 29 -24 82
-50 110 -11 12 -20 25 -20 30 0 20 -23 29 -56 22 -27 -6 -34 -5 -34 7 0 8 4
12 9 9 4 -3 17 1 27 9 18 13 18 14 1 21 -10 3 -23 2 -30 -5 -6 -6 -25 -11 -41
-11 l-31 0 33 26 c17 14 32 30 32 35 0 13 -22 11 -43 -6z m19 -243 c-12 -11
-18 7 -10 30 l8 23 4 -23 c2 -13 1 -26 -2 -30z m143 -109 c30 -17 40 -37 24
-46 -12 -7 -84 43 -78 53 9 14 19 12 54 -7z m-31 -54 c32 -25 9 -35 -33 -15
-38 18 -49 31 -40 46 7 11 34 0 73 -31z m-64 -27 c16 -10 28 -22 28 -27 -2
-19 -28 -16 -55 5 -48 38 -28 54 27 22z m-59 -39 c21 -10 35 -24 35 -35 0 -10
-2 -18 -5 -18 -15 0 -84 54 -79 61 7 12 8 12 49 -8z m229 -19 c23 -9 20 -44
-3 -44 -23 0 -35 15 -27 35 6 17 8 17 30 9z m-275 -21 c49 -29 40 -57 -10 -30
-42 22 -49 28 -44 38 9 13 19 11 54 -8z m-19 -74 c0 -15 -23 -10 -58 11 -28
17 -32 23 -22 35 10 12 17 11 46 -11 19 -15 34 -30 34 -35z m90 -24 c-7 -8
-17 -15 -23 -15 -5 0 -2 9 8 20 21 23 35 19 15 -5z m-60 -25 c0 -5 -4 -10 -10
-10 -5 0 -10 5 -10 10 0 6 5 10 10 10 6 0 10 -4 10 -10z"/>
<path d="M195 3240 c-7 -12 -28 -92 -45 -178 -16 -80 -14 -82 107 -82 82 0 94
2 113 22 11 12 20 24 20 27 0 3 18 19 39 35 22 16 42 40 46 54 8 33 63 112 78
113 7 0 3 4 -8 9 -28 12 -342 12 -350 0z"/>
<path d="M866 3193 c4 -21 14 -67 23 -103 16 -65 16 -65 51 -65 36 0 114 -41
105 -55 -6 -10 -52 2 -83 21 -11 7 -24 10 -28 7 -13 -14 6 -39 36 -44 43 -9
38 -28 -5 -21 -35 6 -49 -8 -20 -19 10 -4 13 -14 9 -30 -5 -18 -2 -24 11 -24
9 0 19 9 22 20 7 26 20 26 28 -1 6 -19 -16 -48 -39 -49 -10 0 2 -51 16 -65 6
-7 9 -3 7 10 -2 11 12 40 30 65 18 25 37 56 42 69 6 14 25 46 44 72 41 55 43
69 12 69 -13 0 -41 15 -63 33 -42 36 -131 101 -177 130 l-28 18 7 -38z m198
-152 c18 -19 24 -31 17 -36 -15 -9 -81 33 -81 51 0 24 35 16 64 -15z"/>
<path d="M2873 3199 c-12 -4 -31 -16 -42 -26 -10 -10 -31 -26 -45 -36 -32 -22
-36 -58 -6 -50 11 3 20 10 20 16 0 6 3 8 6 4 3 -3 18 5 33 19 14 13 33 27 43
29 19 7 32 35 21 46 -4 4 -18 3 -30 -2z"/>
<path d="M2971 3170 c-18 -10 -42 -28 -53 -39 -10 -12 -25 -21 -33 -21 -8 0
-18 -6 -22 -14 -10 -17 -100 -86 -112 -86 -13 0 -22 -28 -10 -35 5 -4 12 1 15
9 3 9 12 16 19 16 27 0 96 45 183 120 30 25 60 44 68 42 8 -2 14 4 14 13 0 20
-27 18 -69 -5z"/>
<path d="M3165 3156 c10 -14 19 -26 22 -26 7 0 -17 39 -28 46 -6 3 -3 -5 6
-20z"/>
<path d="M611 3095 c-16 -29 -42 -81 -56 -116 -23 -56 -24 -65 -10 -75 21 -15
19 -34 -3 -34 -31 0 -47 -70 -47 -200 1 -81 6 -135 19 -180 27 -95 32 -107 61
-126 25 -16 28 -16 56 0 16 9 33 15 37 12 9 -5 63 29 161 100 50 37 68 58 89
103 34 74 32 120 -7 216 -18 44 -41 108 -51 142 -9 35 -24 70 -31 79 -8 10
-53 43 -101 75 l-87 57 -30 -53z m12 -209 c3 -8 -2 -16 -14 -19 -21 -6 -34 7
-24 23 9 15 32 12 38 -4z m257 -156 c0 -15 -7 -20 -26 -20 -21 0 -25 -4 -22
-25 3 -22 -15 -38 -142 -129 -115 -82 -147 -100 -154 -88 -11 19 1 30 146 132
71 49 125 94 127 105 7 41 71 63 71 25z"/>
<path d="M1112 3098 c2 -15 11 -24 27 -26 40 -6 44 13 5 31 -35 17 -35 17 -32
-5z"/>
<path d="M2989 3084 c-7 -9 -23 -20 -36 -25 -24 -9 -31 -33 -13 -44 6 -3 18 1
27 10 9 9 27 21 40 26 15 5 23 16 21 26 -4 23 -23 27 -39 7z"/>
<path d="M1225 3030 c-4 -12 -5 -24 -2 -27 3 -2 8 5 12 17 4 12 5 24 2 27 -3
2 -8 -5 -12 -17z"/>
<path d="M3815 3020 c4 -19 9 -168 10 -330 2 -259 4 -295 18 -304 24 -15 45 7
27 29 -7 8 -19 15 -26 15 -8 0 -14 7 -14 16 0 11 6 15 18 11 59 -19 62 -19 62
-4 0 8 -7 17 -15 21 -26 10 -17 29 10 22 18 -5 25 -2 25 8 0 7 17 40 39 72 21
33 42 69 45 81 8 25 -34 114 -128 278 -69 118 -82 134 -71 85z m85 -185 c-7
-9 -23 -21 -34 -27 -16 -8 -14 -3 8 21 29 31 51 36 26 6z"/>
<path d="M4573 3010 c9 -14 24 -34 32 -46 34 -46 53 -265 35 -394 -7 -47 -12
-93 -12 -103 1 -10 -4 -15 -10 -11 -7 5 -9 -2 -4 -22 4 -20 4 -24 -3 -15 -7
11 -12 3 -22 -30 -7 -24 -16 -46 -20 -49 -3 -3 -22 -36 -42 -75 -40 -80 -117
-187 -185 -259 -26 -27 -46 -54 -44 -60 2 -5 -2 -57 -8 -116 -6 -58 -13 -132
-16 -165 -6 -81 -14 -120 -23 -106 -5 7 -13 -6 -22 -31 -7 -24 -26 -69 -41
-101 -16 -31 -28 -64 -28 -72 0 -8 -4 -15 -8 -15 -15 0 -31 -48 -38 -115 -5
-53 -3 -69 11 -92 l18 -28 -21 19 c-15 13 -22 31 -22 55 0 86 -6 87 -78 13
-36 -37 -67 -75 -69 -85 -3 -18 160 -197 180 -197 5 0 32 20 58 45 l48 45 -29
34 c-17 18 -30 38 -30 42 0 5 6 2 13 -7 7 -8 23 -23 37 -32 l26 -17 59 71 c33
39 65 76 71 83 15 16 112 159 163 240 42 67 141 257 141 270 0 4 11 31 24 59
28 63 87 242 115 352 47 187 77 479 64 620 l-8 90 -36 6 c-26 4 -51 21 -90 60
-59 59 -127 116 -174 145 l-30 19 18 -25z m-332 -1493 c-10 -9 -11 -8 -5 6 3
10 9 15 12 12 3 -3 0 -11 -7 -18z"/>
<path d="M1193 2960 c-12 -5 -29 -24 -36 -42 -8 -18 -26 -51 -41 -72 -32 -47
-33 -56 -5 -49 31 8 20 -18 -14 -35 -30 -14 -67 -58 -67 -79 0 -22 76 -166
104 -196 14 -15 26 -34 26 -42 0 -13 71 -139 74 -133 1 2 -3 90 -9 197 -9 167
-12 192 -24 178 -15 -19 -51 -23 -51 -7 0 6 16 20 35 31 31 19 35 26 35 63 0
24 3 77 6 119 7 79 5 82 -33 67z m13 -68 c-11 -10 -15 4 -8 28 l7 25 3 -23 c2
-13 1 -26 -2 -30z m-7 -38 c1 -1 1 -7 0 -13 -2 -5 -15 -1 -29 10 l-25 20 25
-7 c14 -3 27 -8 29 -10z m-19 -94 c0 -15 -42 -50 -62 -50 -25 0 -23 11 10 37
28 23 52 30 52 13z m30 -260 c0 -14 -7 -20 -24 -20 -28 0 -54 25 -34 33 32 13
58 7 58 -13z"/>
<path d="M137 2953 c-4 -3 -7 -104 -7 -224 0 -251 -12 -229 122 -229 107 0
110 4 102 133 -4 73 -1 130 10 201 12 74 14 102 5 112 -8 10 -40 14 -119 14
-58 0 -110 -3 -113 -7z"/>
<path d="M2428 2919 c-23 -13 -25 -74 -2 -83 9 -3 80 -6 158 -6 154 0 166 4
166 52 0 21 -6 31 -26 38 -33 13 -274 12 -296 -1z"/>
<path d="M2429 2767 c-24 -19 -29 -43 -13 -66 14 -20 24 -21 164 -21 137 0
150 2 160 19 16 30 12 59 -9 71 -28 15 -282 13 -302 -3z"/>
<path d="M1636 2694 c-27 -26 -30 -63 -13 -164 21 -125 46 -196 104 -292 124
-205 329 -356 578 -425 91 -25 116 -27 270 -28 156 0 179 2 275 28 58 16 121
37 140 46 19 10 59 30 89 46 105 53 244 172 313 270 81 113 135 263 145 400
l6 73 -136 7 c-75 4 -232 3 -348 -1 l-212 -9 -20 -27 c-18 -24 -18 -30 -7 -58
7 -17 21 -35 31 -40 10 -6 122 -10 253 -10 202 0 236 -2 236 -15 0 -29 -54
-151 -96 -215 -90 -138 -217 -235 -380 -290 -89 -29 -114 -33 -244 -37 -123
-5 -158 -2 -230 15 -182 44 -340 143 -457 287 -74 91 -132 252 -133 367 0 38
-5 50 -26 67 -33 26 -115 29 -138 5z"/>
<path d="M2408 2595 c-9 -21 -8 -28 7 -45 17 -18 31 -20 165 -20 162 0 174 4
168 57 l-3 28 -163 3 -162 2 -12 -25z"/>
<path d="M990 2570 c0 -12 -9 -33 -19 -48 -19 -27 -77 -210 -69 -218 3 -2 44
24 91 58 81 57 100 79 78 92 -4 3 -22 35 -39 71 -33 69 -42 78 -42 45z"/>
<path d="M4046 2582 c-3 -5 1 -15 9 -22 25 -21 19 -43 -10 -36 -20 5 -25 3
-25 -12 0 -11 -9 -27 -21 -38 -12 -10 -30 -37 -42 -59 -11 -22 -53 -91 -94
-153 -57 -87 -75 -122 -75 -149 0 -40 0 -40 137 -125 55 -34 111 -70 124 -80
13 -10 29 -18 36 -18 19 0 115 78 115 94 0 11 -84 69 -185 129 -61 36 -85 59
-82 80 2 18 -4 23 -30 25 -21 2 -33 9 -33 18 0 38 71 17 85 -25 3 -10 36 -38
73 -60 96 -59 104 -64 135 -85 15 -10 30 -16 32 -14 4 4 -22 189 -27 192 -62
37 -87 58 -82 71 4 8 3 22 0 31 -5 13 -9 14 -21 4 -16 -14 -35 -5 -35 16 0 8
9 14 21 14 28 0 59 -18 59 -34 0 -7 9 -21 20 -31 26 -23 25 -16 -5 91 -39 137
-66 197 -79 176z"/>
<path d="M133 2358 c6 -117 29 -235 73 -371 19 -58 14 -60 148 81 l97 104 -6
66 c-4 37 -11 71 -16 76 -5 6 -9 17 -9 27 0 9 -11 36 -23 60 -24 45 -27 52
-27 69 0 6 -47 10 -121 10 l-122 0 6 -122z"/>
<path d="M787 2400 c-37 -28 -72 -61 -77 -73 l-9 -22 -7 22 c-5 19 -10 21 -26
12 -10 -6 -24 -8 -31 -6 -19 7 -47 -12 -47 -32 0 -10 9 -29 19 -42 19 -24 20
-24 49 -6 38 22 48 21 83 -4 l29 -20 24 23 c13 13 33 54 45 95 12 40 24 79 27
88 10 25 -8 17 -79 -35z"/>
<path d="M995 2314 c-101 -73 -125 -100 -125 -142 0 -27 70 -67 77 -44 3 6 18
12 35 12 21 0 55 17 110 57 44 32 81 60 84 64 5 9 -58 117 -71 122 -5 2 -55
-29 -110 -69z"/>
<path d="M3817 2353 c-4 -3 -7 -15 -7 -26 0 -16 3 -17 15 -7 8 7 15 19 15 26
0 15 -12 19 -23 7z"/>
<path d="M1160 2198 c-81 -58 -120 -93 -120 -105 0 -7 -4 -13 -10 -13 -5 0
-10 6 -10 14 0 20 -72 15 -87 -6 -7 -9 -29 -26 -48 -38 -26 -16 -35 -28 -35
-48 1 -50 226 -209 428 -301 51 -24 96 -40 99 -37 3 3 -1 25 -10 48 -8 24 -19
59 -22 78 -7 35 -30 70 -47 70 -5 0 -8 -6 -6 -14 4 -22 -13 -24 -26 -3 -9 14
-6 21 18 40 l28 23 -12 59 c-7 33 -16 64 -20 68 -9 11 -70 -41 -70 -59 0 -8
-4 -14 -10 -14 -5 0 -10 6 -10 14 0 27 -71 6 -121 -36 l-47 -39 -41 28 c-22
15 -40 33 -41 39 0 10 38 42 76 62 17 9 27 7 56 -13 30 -20 37 -22 42 -10 3 9
18 15 37 15 36 0 119 55 119 79 0 19 -32 88 -51 114 -13 16 -17 15 -59 -15z
m-112 -330 c-6 -18 -25 -20 -31 -3 -5 10 0 15 14 15 12 0 19 -5 17 -12z m134
-18 c7 -11 19 -20 26 -20 19 0 38 -48 25 -61 -8 -8 -15 -4 -24 12 -17 34 -30
40 -66 34 -40 -7 -46 15 -11 39 29 21 35 20 50 -4z"/>
<path d="M738 2183 c-53 -39 -54 -35 10 -108 18 -20 36 -34 39 -31 3 3 1 11
-5 19 -8 9 -8 24 2 52 22 66 27 105 13 104 -6 0 -33 -16 -59 -36z"/>
<path d="M4250 2183 c0 -25 23 -133 29 -132 3 0 21 18 38 38 l33 38 -44 31
c-45 32 -56 37 -56 25z"/>
<path d="M1716 2152 c-4 -7 -18 -12 -31 -12 -21 0 -24 -4 -19 -27 5 -26 -2
-33 -82 -91 l-87 -64 54 -54 c29 -30 57 -54 62 -54 5 0 32 18 61 40 28 22 70
54 93 71 54 42 60 72 22 118 -16 20 -37 47 -47 60 -13 16 -21 21 -26 13z"/>
<path d="M346 2035 c-136 -133 -130 -107 -63 -275 35 -89 49 -113 93 -155 54
-52 81 -112 71 -162 -2 -13 0 -23 4 -23 5 0 9 -5 9 -11 0 -23 170 -260 181
-253 5 3 9 193 9 423 l0 418 -49 64 c-47 62 -83 89 -119 89 -10 0 -71 -52
-136 -115z"/>
<path d="M3766 2027 c-2 -6 -10 -42 -18 -79 -14 -61 -14 -69 1 -81 21 -19 146
-97 155 -97 4 0 38 19 77 42 79 47 80 39 -6 95 -177 115 -206 132 -209 120z"/>
<path d="M3661 1987 c-22 -33 -27 -47 -18 -56 21 -21 33 -11 44 42 6 28 9 53
8 55 -2 2 -17 -16 -34 -41z"/>
<path d="M1365 1980 c9 -56 17 -65 37 -43 15 17 14 21 -14 53 l-30 35 7 -45z"/>
<path d="M3558 1869 c-32 -34 -58 -68 -57 -73 0 -11 95 -76 110 -76 8 0 49
120 49 145 0 8 -9 16 -19 20 -11 3 -21 15 -23 27 -3 17 -12 11 -60 -43z"/>
<path d="M1411 1891 l-24 -18 24 -78 c23 -78 23 -78 35 -49 10 24 19 30 55 34
24 3 44 10 44 16 0 15 -87 114 -100 114 -5 0 -21 -9 -34 -19z"/>
<path d="M847 1833 c9 -147 13 -162 44 -185 l30 -22 -22 -17 -22 -17 20 -48
c17 -43 23 -49 46 -46 35 4 65 -13 69 -37 4 -28 254 -211 288 -211 14 0 33 -6
42 -12 19 -16 30 -46 18 -53 -4 -3 -10 0 -12 7 -4 12 -98 21 -98 9 0 -4 5 -12
12 -19 6 -6 9 -14 5 -18 -10 -10 -27 6 -27 26 0 21 -29 46 -183 156 -76 54
-77 57 -71 90 6 35 1 40 -30 28 -23 -9 -20 -23 20 -84 90 -135 183 -219 316
-286 79 -40 81 -40 73 -14 -9 30 35 70 78 70 37 0 83 -39 74 -63 -4 -10 1 -13
20 -9 25 5 26 3 20 -32 -5 -31 -3 -37 16 -40 44 -9 167 -17 167 -11 0 4 -20
32 -44 63 -24 31 -69 99 -101 150 -57 92 -72 110 -60 72 9 -27 -16 -26 -41 1
-19 21 -19 22 4 36 33 23 27 33 -19 33 -37 0 -40 -2 -33 -22 6 -20 5 -21 -10
-9 -9 7 -16 20 -16 27 0 14 -65 65 -187 147 -61 41 -63 43 -63 86 0 43 0 44
-19 27 -23 -21 -41 -14 -41 15 0 15 7 19 34 19 36 0 49 -11 51 -42 1 -10 4
-20 6 -22 15 -13 256 -179 267 -183 22 -9 12 30 -26 106 l-37 73 -80 32 c-75
31 -117 52 -209 106 -37 23 -39 23 -70 6 -32 -17 -33 -17 -75 11 l-43 28 22
17 c25 21 21 30 -28 63 -21 14 -46 32 -58 40 -20 15 -21 14 -17 -42z"/>
<path d="M4187 1876 c-9 -10 -17 -21 -17 -26 0 -5 -10 -12 -22 -16 -27 -8
-120 -67 -135 -85 -6 -8 -13 -23 -15 -34 -3 -15 -10 -19 -31 -17 -15 2 -27 -2
-27 -9 0 -6 -7 -8 -17 -5 -15 6 -152 -51 -153 -64 0 -3 21 -19 48 -36 26 -18
95 -64 155 -103 59 -39 111 -71 116 -71 15 0 101 226 101 268 0 6 -9 12 -20
12 -11 0 -20 7 -20 15 0 9 9 15 25 15 18 0 25 5 25 19 0 11 3 26 6 34 3 8 -2
21 -10 30 -20 20 -20 37 0 52 9 6 15 18 12 25 -3 10 -8 9 -21 -4z m-147 -176
c0 -10 -4 -22 -10 -25 -6 -4 -10 7 -10 25 0 18 4 29 10 25 6 -3 10 -15 10 -25z"/>
<path d="M3701 1761 c-12 -38 -21 -74 -21 -80 0 -18 23 -13 88 19 34 17 67 30
72 30 24 0 5 22 -51 60 -33 22 -62 40 -64 40 -2 0 -12 -31 -24 -69z"/>
<path d="M1573 1758 c-6 -7 -13 -22 -17 -33 -8 -20 -8 -20 -16 1 -6 16 -15 19
-42 16 -45 -5 -62 -39 -43 -86 13 -30 25 -37 112 -69 104 -39 259 -74 271 -62
4 4 -15 27 -43 51 -35 30 -51 39 -53 29 -4 -19 -22 -20 -22 -2 0 10 -14 14
-45 15 -44 0 -45 -1 -38 -26 6 -24 5 -26 -10 -13 -23 19 -21 34 8 61 15 14 31
21 45 17 11 -3 20 -4 20 -3 0 4 -112 116 -115 116 -2 0 -7 -6 -12 -12z"/>
<path d="M3402 1707 c-29 -29 -52 -55 -52 -58 0 -3 23 -21 51 -39 l51 -33 55
17 c57 18 97 49 90 69 -4 12 -123 97 -135 97 -4 0 -31 -24 -60 -53z"/>
<path d="M3280 1597 c-14 -12 -41 -35 -59 -50 -18 -15 -31 -30 -28 -33 6 -7
197 38 197 46 0 4 -65 51 -80 57 -3 1 -16 -8 -30 -20z"/>
<path d="M3672 1584 c-23 -9 -38 -26 -52 -56 -10 -24 -16 -46 -12 -50 4 -4 86
-59 182 -122 l175 -115 31 30 c32 31 72 95 64 101 -145 96 -311 203 -335 216
-15 7 -29 7 -53 -4z"/>
<path d="M735 1560 c-12 -18 -20 -390 -10 -467 7 -54 10 -59 91 -138 46 -45
110 -105 142 -133 55 -49 57 -50 65 -29 5 12 7 90 5 172 -4 170 -12 191 -88
256 -22 19 -40 39 -40 45 0 6 -7 18 -17 25 -9 8 -22 29 -30 47 -7 17 -28 56
-47 85 -18 28 -40 75 -48 102 -10 38 -16 47 -23 35z"/>
<path d="M1510 1522 c0 -5 23 -55 50 -111 28 -56 50 -104 50 -107 0 -10 87
-142 134 -203 81 -106 74 -101 140 -101 l59 0 -7 39 c-7 47 4 58 39 35 29 -19
31 -32 8 -50 -11 -8 -13 -13 -5 -14 40 -1 345 86 429 122 l33 14 -73 37 c-75
38 -104 46 -91 25 4 -7 3 -8 -4 -4 -7 4 -12 14 -12 22 0 16 -16 19 -25 4 -4
-6 -15 -6 -32 1 -23 8 -25 7 -20 -11 3 -13 0 -20 -9 -20 -21 0 -17 36 6 58 20
18 20 18 -8 39 -52 38 -111 63 -152 63 -30 0 -40 4 -40 16 0 8 4 13 9 9 5 -3
12 -1 15 4 4 5 2 13 -4 16 -17 11 -169 45 -198 45 -14 0 -44 6 -67 14 -22 8
-60 19 -85 26 -25 6 -58 16 -75 21 -57 20 -65 21 -65 11z m457 -167 c17 -9 33
-22 36 -29 5 -13 -58 -84 -67 -75 -9 10 -17 119 -8 119 5 0 23 -7 39 -15z
m131 -182 c20 -18 26 -32 23 -63 0 -8 -19 -21 -42 -28 -41 -13 -66 -8 -40 7
10 6 9 10 -4 15 -23 9 -25 8 -25 -9 0 -13 -4 -14 -20 -5 -29 15 -25 44 11 74
36 30 68 33 97 9z"/>
<path d="M3375 1484 c-49 -14 -92 -27 -95 -30 -6 -7 28 -33 107 -83 70 -45 66
-46 108 43 l29 59 -23 18 c-13 11 -26 19 -30 18 -3 0 -46 -12 -96 -25z"/>
<path d="M3130 1429 c-25 -5 -58 -14 -75 -21 -32 -13 -202 -125 -210 -139 -3
-4 1 -27 9 -50 8 -24 13 -45 11 -47 -8 -9 -43 61 -38 76 4 10 1 13 -8 10 -8
-2 -16 -22 -19 -43 -4 -35 -9 -40 -38 -46 -18 -4 -41 -14 -51 -23 -10 -9 -24
-16 -31 -16 -68 0 160 -72 336 -105 149 -29 184 -31 184 -10 0 25 23 65 38 65
11 0 9 -8 -7 -36 -25 -41 -22 -55 6 -27 22 23 123 151 123 157 0 2 16 28 35
57 20 29 32 55 28 59 -29 25 -226 150 -236 149 -7 -1 -32 -5 -57 -10z m17
-136 c7 -18 13 -38 13 -45 0 -18 -40 -82 -46 -75 -3 3 2 17 11 31 18 27 15 47
-20 131 -8 18 -7 19 10 5 10 -8 24 -29 32 -47z m-267 -45 c0 -16 -3 -19 -11
-11 -6 6 -8 16 -5 22 11 17 16 13 16 -11z m138 -76 c2 -7 -7 -12 -22 -12 -27
0 -35 15 -13 23 17 7 30 3 35 -11z"/>
<path d="M3541 1359 c-19 -38 -32 -71 -30 -73 19 -17 269 -176 277 -176 11 0
72 40 120 77 l22 18 -168 113 c-93 61 -172 112 -178 111 -5 0 -24 -32 -43 -70z"/>
<path d="M2180 1373 c14 -10 42 -29 63 -41 l39 -22 39 27 c21 16 39 31 39 36
0 4 -31 7 -69 7 -38 0 -84 3 -102 6 l-34 7 25 -20z"/>
<path d="M2635 1376 l-200 -11 -47 -35 c-26 -19 -47 -40 -48 -46 0 -6 41 -32
92 -57 72 -36 95 -44 110 -36 15 8 17 14 8 24 -16 19 -3 59 30 90 37 35 112
45 159 22 30 -15 34 -15 69 5 20 12 48 30 61 40 l24 18 -29 -2 c-16 -1 -119
-6 -229 -12z"/>
<path d="M3455 1203 c-36 -62 -111 -167 -130 -183 -28 -23 -15 -29 58 -24 96
7 120 12 114 27 -15 40 -17 57 -8 57 10 0 27 -38 23 -52 -3 -13 27 -9 109 13
117 31 121 38 57 78 -46 30 -117 77 -177 119 -17 12 -21 8 -46 -35z"/>
<path d="M2706 1195 c-11 -8 -18 -17 -15 -19 2 -3 15 4 29 14 14 11 21 20 15
19 -5 0 -19 -6 -29 -14z"/>
<path d="M2620 1140 c20 -13 43 -13 35 0 -3 6 -16 10 -28 10 -18 0 -19 -2 -7
-10z"/>
<path d="M2430 1071 c-125 -50 -153 -60 -227 -78 -66 -17 -72 -23 -48 -43 8
-7 15 -18 15 -25 0 -41 -110 -116 -136 -94 -7 6 -19 9 -25 7 -7 -2 3 -14 22
-26 19 -12 50 -32 69 -45 19 -13 45 -27 58 -31 21 -7 22 -6 16 33 -4 26 -3 41
4 41 16 0 52 -50 52 -74 0 -31 10 -40 55 -54 36 -11 43 -10 69 10 62 45 178
29 204 -27 13 -29 19 -30 110 -10 96 20 172 50 271 106 78 46 211 151 211 168
0 5 -30 11 -67 14 -113 11 -305 66 -508 146 l-51 19 -94 -37z m418 -152 c19
-37 -1 -119 -29 -119 -5 0 -9 34 -9 76 0 80 12 93 38 43z m-294 -16 c9 -56 7
-113 -3 -113 -32 0 -53 89 -31 131 16 29 27 23 34 -18z m166 -153 c0 -5 -14
-10 -31 -10 -17 0 -28 4 -24 10 3 6 17 10 31 10 13 0 24 -4 24 -10z"/>
<path d="M1057 1094 c-4 -4 -7 -82 -7 -174 0 -195 -12 -172 146 -275 54 -35
104 -69 111 -75 7 -5 15 -10 19 -10 3 0 17 -9 31 -20 14 -11 35 -20 45 -20 11
0 32 -8 46 -18 74 -52 345 -155 361 -139 14 14 15 426 1 462 -17 46 -33 53
-121 59 -124 7 -132 7 -160 -5 -23 -9 -35 -6 -75 15 -27 14 -56 26 -64 26 -14
0 -89 37 -240 115 -30 16 -62 38 -70 48 -8 10 -19 15 -23 11z"/>
<path d="M1464 1076 c-4 -11 -14 -14 -29 -10 -35 9 -39 -13 -4 -25 36 -12 45
-9 52 19 6 24 -11 38 -19 16z"/>
<path d="M3904 1071 c3 -5 -8 -14 -25 -20 -39 -13 -34 -24 69 -133 44 -46 81
-88 83 -95 5 -14 79 46 79 63 0 17 -180 194 -196 194 -8 0 -13 -4 -10 -9z"/>
<path d="M3678 948 c-16 -5 -28 -15 -28 -21 0 -6 17 -31 39 -56 38 -46 38 -47
43 -149 3 -56 8 -105 11 -108 7 -7 20 -2 58 24 15 9 41 26 58 37 28 18 31 24
31 71 0 51 -1 52 -74 122 -90 85 -102 92 -138 80z"/>
<path d="M1896 925 c4 -8 12 -15 20 -15 8 0 14 7 14 15 0 8 -9 15 -20 15 -13
0 -18 -5 -14 -15z"/>
<path d="M3496 905 c-38 -7 -78 -10 -88 -7 -36 9 -17 -25 62 -111 l80 -87 0
-95 c0 -53 4 -97 10 -100 6 -4 33 7 60 24 28 17 55 31 60 31 21 0 30 44 30
147 l-1 108 -33 36 c-42 45 -76 69 -96 68 -8 -1 -46 -7 -84 -14z"/>
<path d="M3179 838 c-24 -26 -48 -47 -54 -48 -15 -1 -85 -66 -79 -73 7 -6 -49
-37 -66 -37 -6 0 -26 -11 -43 -24 -18 -13 -56 -34 -84 -47 -29 -12 -53 -26
-53 -30 0 -4 -22 -12 -50 -19 -49 -12 -50 -13 -50 -49 0 -65 -51 -109 -111
-96 -35 8 -72 64 -64 97 6 22 4 23 -50 20 -101 -7 -239 25 -337 79 -29 15 -78
41 -110 58 l-56 30 -8 -87 c-9 -116 1 -293 18 -303 20 -13 980 -11 1057 2 110
18 466 146 483 172 4 7 8 60 8 118 l0 106 -86 86 c-53 53 -94 87 -107 88 -12
0 -43 1 -68 2 -42 2 -49 -1 -90 -45z"/>
<path d="M1845 646 c-4 -79 -4 -180 0 -224 6 -72 9 -81 31 -91 54 -24 62 -18
70 66 8 94 -2 316 -16 342 -5 11 -19 23 -30 26 -11 3 -20 11 -20 16 0 5 -6 9
-14 9 -11 0 -15 -31 -21 -144z"/>
</g>
</svg>
